<svg data-v-423bf9ae="" xmlns="http://www.w3.org/2000/svg" viewBox="0 0 334 90" class="iconLeft"><!----><!----><!----><g data-v-423bf9ae="" id="402629d4-a932-4d37-a8c6-15cedd28a1ea" fill="white" transform="matrix(4.2365400447582156,0,0,4.2365400447582156,110.16580921770405,3.5719320775746155)"><path d="M6.37 10.33Q6.54 9.81 6.65 9.29Q6.76 8.76 6.84 8.31Q6.92 7.85 6.94 7.71L6.94 7.71Q7.01 7.35 7.20 6.69L7.20 6.69L7.46 5.64L7.59 5.18Q7.70 4.75 7.76 4.49Q7.81 4.24 7.81 3.96L7.81 3.96Q7.81 3.54 8.18 3.19Q8.54 2.83 8.97 2.83L8.97 2.83L10.70 2.83Q10.82 2.83 10.88 2.89Q10.95 2.95 11.05 3.09L11.05 3.09Q11.19 3.30 11.28 3.40L11.28 3.40Q11.09 3.60 10.93 3.70Q10.77 3.81 10.56 3.81L10.56 3.81Q10.35 3.81 10.12 3.70L10.12 3.70Q10.00 4.06 10.00 4.48L10.00 4.48Q10.00 4.70 10.05 5.18L10.05 5.18Q10.12 5.60 10.12 5.99L10.12 5.99L10.12 7.15L10.12 8.60L10.12 10.91L10.11 11.73Q10.09 11.93 10.09 12.31L10.09 12.31Q10.09 12.71 10.12 12.92L10.12 12.92Q10.18 13.44 10.18 14.01L10.18 14.01Q10.18 14.38 10.15 14.97L10.15 14.97Q10.12 15.55 10.12 15.81L10.12 15.81Q10.58 15.81 10.95 16.04Q11.31 16.28 11.31 16.53L11.31 16.53Q11.31 16.73 11.10 16.83L11.10 16.83Q10.92 16.83 10.79 16.79L10.79 16.79Q10.77 16.79 10.68 16.77Q10.60 16.74 10.49 16.74L10.49 16.74Q10.43 16.74 10.18 16.79L10.18 16.79Q10.01 16.84 9.86 16.84L9.86 16.84L9.35 16.74Q9.44 16.70 9.27 16.73Q9.10 16.76 8.88 16.79Q8.65 16.83 8.39 16.83L8.39 16.83Q8.39 16.73 8.35 16.69Q8.32 16.65 8.21 16.59Q8.11 16.53 8.11 16.39L8.11 16.39Q8.11 16.28 8.20 16.22Q8.29 16.16 8.50 16.07L8.50 16.07Q8.86 15.92 8.97 15.81L8.97 15.81Q8.78 14.49 8.78 12.61L8.78 12.61Q8.78 12.03 8.81 10.71L8.81 10.71Q8.83 9.76 8.83 9.27L8.83 9.27Q8.83 9.10 8.89 8.48L8.89 8.48Q8.97 7.78 8.97 7.45L8.97 7.45L8.97 6.29Q8.97 6.13 8.97 6.06Q8.96 5.98 8.86 5.74L8.86 5.74L8.88 5.47Q8.88 5.32 8.68 5.12L8.68 5.12Q8.68 5.14 8.69 5.20Q8.71 5.26 8.71 5.36L8.71 5.36Q8.71 5.57 8.64 5.71L8.64 5.71Q8.50 6.06 8.35 6.63Q8.20 7.20 8.08 7.78L8.08 7.78Q7.91 8.51 7.81 8.88L7.81 8.88Q7.78 8.97 7.69 9.28Q7.60 9.58 7.56 9.76L7.56 9.76L7.36 10.81Q7.13 12.00 7.06 12.32L7.06 12.32Q7.01 12.50 6.96 13.01L6.96 13.01Q6.90 13.54 6.84 13.81Q6.78 14.08 6.65 14.08L6.65 14.08Q6.47 14.08 6.22 13.93L6.22 13.93Q5.94 13.79 5.81 13.79L5.81 13.79Q5.81 13.48 5.76 13.24Q5.71 12.99 5.60 12.64L5.60 12.64L5.52 12.35L5.28 11.48Q5.21 11.24 5.07 10.73Q4.93 10.22 4.80 9.81L4.80 9.81Q4.48 8.78 4.21 8.08L4.21 8.08Q4.17 7.97 4.12 7.78Q4.06 7.59 3.98 7.43Q3.89 7.28 3.77 7.15L3.77 7.15L3.77 9.17Q3.77 9.52 3.64 10.30L3.64 10.30Q3.49 11.35 3.49 11.76L3.49 11.76L3.49 13.22L3.49 15.81Q3.77 15.81 3.91 15.86Q4.06 15.90 4.06 16.10L4.06 16.10Q4.06 16.45 3.67 16.58Q3.28 16.72 2.65 16.72L2.65 16.72Q2.34 16.72 1.86 16.69L1.86 16.69L1.47 16.67Q1.34 16.67 1.28 16.61Q1.22 16.55 1.12 16.41L1.12 16.41Q0.98 16.20 0.88 16.10L0.88 16.10Q0.98 16.00 1.06 15.89Q1.13 15.78 1.20 15.73Q1.27 15.68 1.37 15.68L1.37 15.68Q1.51 15.68 1.76 15.81L1.76 15.81L1.76 12.92L1.76 9.17L1.76 8.60L1.76 5.71L1.76 3.70Q1.61 3.70 1.49 3.75Q1.37 3.79 1.25 3.79L1.25 3.79Q1.16 3.79 1.07 3.77Q0.98 3.75 0.94 3.75L0.94 3.75Q0.74 3.70 0.60 3.70L0.60 3.70Q0.38 3.47 0.34 3.37Q0.31 3.26 0.31 2.83L0.31 2.83Q0.69 2.70 1.19 2.70L1.19 2.70Q2.21 2.70 3.49 3.11L3.49 3.11Q3.71 3.58 3.89 3.92Q4.06 4.26 4.17 4.48L4.17 4.48Q4.21 4.54 4.35 4.83L4.35 4.83L4.35 5.12Q4.66 5.74 4.92 6.46Q5.18 7.18 5.49 8.18L5.49 8.18L5.74 8.96Q5.85 9.30 5.96 9.53Q6.06 9.76 6.19 9.98L6.19 9.98L6.37 10.33ZM18.48 15.46Q18.34 15.71 18.12 15.95Q17.89 16.18 17.70 16.31L17.70 16.31Q16.88 16.83 15.97 16.83L15.97 16.83Q15.06 16.83 14.29 16.34Q13.51 15.86 13.13 15.16L13.13 15.16Q12.61 14.18 12.26 13.15L12.26 13.15Q12.08 12.40 12.03 11.64Q11.98 10.88 11.98 9.73L11.98 9.73Q11.98 9.55 11.96 9.21L11.96 9.21Q11.93 8.85 11.93 8.67L11.93 8.67Q11.93 8.34 11.98 8.01L11.98 8.01Q12.00 7.92 12.07 7.55Q12.14 7.17 12.14 6.92L12.14 6.92Q12.17 6.78 12.24 6.38L12.24 6.38Q12.29 6.01 12.36 5.78Q12.42 5.56 12.56 5.43L12.56 5.43Q12.71 5.22 13.02 4.75L13.02 4.75Q13.44 4.10 13.74 3.74Q14.04 3.37 14.50 3.11Q14.95 2.84 15.57 2.84L15.57 2.84Q15.85 2.84 16.00 2.87L16.00 2.87Q16.84 2.87 17.34 3.12Q17.84 3.37 18.27 4.02L18.27 4.02Q18.93 4.45 19.38 5.36Q19.84 6.27 19.94 7.36L19.94 7.36Q19.99 7.94 19.99 8.88L19.99 8.88L19.99 9.49Q19.99 10.92 19.75 11.91L19.75 11.91Q19.33 13.90 18.48 15.46L18.48 15.46ZM17.23 15.26Q17.42 14.80 17.65 14.08Q17.88 13.37 17.99 12.88L17.99 12.88Q18.17 12.31 18.22 11.73Q18.27 11.16 18.27 10.30L18.27 10.30Q18.27 10.01 18.33 9.56L18.33 9.56Q18.33 9.48 18.35 9.26Q18.37 9.04 18.37 8.85L18.37 8.85Q18.37 8.65 18.35 8.39Q18.34 8.13 18.33 7.99L18.33 7.99Q18.27 7.43 18.27 7.15L18.27 7.15Q18.13 6.87 17.99 6.31L17.99 6.31Q17.85 5.73 17.70 5.43L17.70 5.43L17.54 5.10Q17.29 4.55 17.09 4.24Q16.90 3.93 16.59 3.78L16.59 3.78Q16.31 3.78 16.03 3.75L16.03 3.75Q15.72 3.72 15.43 3.72L15.43 3.72Q15.01 4.14 14.76 4.60Q14.50 5.05 14.28 5.71L14.28 5.71Q14.08 6.09 14.04 6.48Q13.99 6.86 13.99 7.43L13.99 7.43Q13.87 8.33 13.87 9.42L13.87 9.42Q13.87 11.40 14.28 13.72L14.28 13.72Q14.38 13.92 14.44 14.14Q14.50 14.36 14.53 14.43L14.53 14.43Q14.62 14.73 14.68 14.89Q14.74 15.05 14.85 15.16L14.85 15.16Q14.97 15.16 15.00 15.20Q15.04 15.25 15.06 15.39Q15.09 15.53 15.18 15.61L15.18 15.61Q15.40 15.83 15.90 15.83L15.90 15.83Q16.34 15.83 16.74 15.67Q17.14 15.51 17.23 15.26L17.23 15.26ZM28.99 3.00Q28.99 3.12 28.93 3.25Q28.87 3.37 28.81 3.45Q28.74 3.53 28.71 3.56L28.71 3.56L28.14 3.56Q28.01 3.68 28.01 3.85L28.01 3.85Q28.01 3.92 28.07 4.14L28.07 4.14Q28.14 4.52 28.14 4.69L28.14 4.69L28.14 7.87Q28.14 12.96 28.36 16.17L28.36 16.17Q28.38 16.51 28.20 16.66Q28.01 16.81 27.75 16.81L27.75 16.81Q27.55 16.81 27.36 16.74Q27.17 16.67 27.08 16.58L27.08 16.58Q26.96 16.24 26.82 15.80Q26.67 15.36 26.49 14.80L26.49 14.80Q25.47 11.80 25.05 10.32L25.05 10.32Q24.92 9.84 24.67 9.28Q24.42 8.71 24.39 8.65L24.39 8.65Q24.30 8.47 24.26 8.35Q24.22 8.23 24.21 8.20L24.21 8.20Q24.09 7.95 24.04 7.56L24.04 7.56Q23.97 7.20 23.88 7.01Q23.80 6.82 23.56 6.69L23.56 6.69L23.56 8.65L23.56 10.89L23.56 13.15L23.56 13.99L23.56 15.39Q23.74 15.57 23.93 15.62Q24.12 15.67 24.39 15.67L24.39 15.67Q24.39 15.81 24.42 16.09L24.42 16.09Q24.44 16.31 24.44 16.39L24.44 16.39Q24.44 16.59 24.37 16.69Q24.29 16.79 24.08 16.79L24.08 16.79L23.45 16.80L21.57 16.84Q21.46 16.84 21.43 16.75Q21.39 16.66 21.39 16.48L21.39 16.48Q21.39 16.28 21.41 16.17L21.41 16.17L21.42 15.75Q21.45 15.76 21.54 15.79Q21.63 15.82 21.71 15.82L21.71 15.82Q21.88 15.82 21.88 15.67L21.88 15.67Q22.04 15.34 22.04 14.81L22.04 14.81Q22.04 14.59 22.01 14.20L22.01 14.20Q21.98 13.83 21.98 13.71L21.98 13.71Q21.98 13.22 21.92 12.21L21.92 12.21Q21.88 11.59 21.88 11.19L21.88 11.19L21.87 9.21Q21.87 8.89 21.81 8.36L21.81 8.36Q21.76 7.83 21.76 7.56L21.76 7.56Q21.76 7.48 21.69 7.13L21.69 7.13Q21.60 6.82 21.60 6.69L21.60 6.69L21.60 6.41L21.60 5.56Q21.60 5.35 21.59 5.26L21.59 5.26L21.57 4.84Q21.57 4.62 21.43 4.28L21.43 4.28Q21.32 4.00 21.32 3.88L21.32 3.88Q20.92 3.88 20.69 3.71Q20.47 3.54 20.47 3.32L20.47 3.32Q20.47 3.11 20.61 2.95Q20.75 2.80 20.96 2.80L20.96 2.80Q21.07 2.80 21.13 2.79Q21.20 2.79 21.25 2.79L21.25 2.79Q21.38 2.76 21.60 2.74L21.60 2.74Q21.70 2.73 21.83 2.75Q21.95 2.77 22.02 2.77L22.02 2.77Q22.30 2.80 22.51 2.80L22.51 2.80Q22.68 2.80 22.79 2.91Q22.90 3.02 22.95 3.15Q23.00 3.28 23.00 3.32L23.00 3.32Q23.55 4.12 23.94 5.01Q24.33 5.89 24.86 7.28L24.86 7.28Q25.33 8.50 25.52 8.93L25.52 8.93Q25.70 9.51 25.90 9.93Q26.10 10.36 26.38 10.89L26.38 10.89Q26.38 11.09 26.43 11.26Q26.47 11.44 26.61 11.76L26.61 11.76Q26.66 11.84 26.75 12.21L26.75 12.21Q26.87 12.56 27.01 12.94Q27.15 13.33 27.27 13.50L27.27 13.50Q27.30 13.54 27.31 13.49Q27.31 13.44 27.31 13.34L27.31 13.34Q27.31 13.13 27.26 12.40L27.26 12.40Q27.20 11.68 27.20 11.47L27.20 11.47Q27.20 10.84 27.26 9.27L27.26 9.27Q27.31 7.59 27.31 6.65L27.31 6.65L27.31 6.37Q27.31 5.94 27.17 5.24L27.17 5.24Q27.03 4.54 27.03 4.12L27.03 4.12Q26.77 3.85 26.57 3.70Q26.36 3.56 26.18 3.56L26.18 3.56Q26.10 3.47 25.99 3.40Q25.89 3.32 25.84 3.25Q25.79 3.18 25.79 3.08L25.79 3.08Q25.79 2.93 25.90 2.70L25.90 2.70Q26.03 2.70 26.10 2.74Q26.18 2.79 26.40 2.79L26.40 2.79Q26.67 2.79 26.83 2.75Q26.99 2.72 27.03 2.70L27.03 2.70Q27.20 2.74 27.40 2.74L27.40 2.74Q27.54 2.74 27.85 2.72L27.85 2.72Q28.28 2.69 28.46 2.70L28.46 2.70Q28.87 2.73 28.99 3.00L28.99 3.00ZM34.15 3.37Q34.15 3.29 34.20 3.18Q34.26 3.07 34.45 3.07L34.45 3.07Q34.75 3.07 34.89 3.12Q35.03 3.16 35.03 3.37L35.03 3.37Q35.17 3.51 35.17 3.74L35.17 3.74Q35.17 3.91 35.08 4.21L35.08 4.21Q35.03 4.47 35.03 4.54L35.03 4.54Q34.99 4.63 34.83 5.01Q34.66 5.38 34.48 5.59Q34.29 5.80 34.08 5.80L34.08 5.80Q33.95 5.80 33.84 5.74L33.84 5.74Q33.71 5.61 33.71 5.36L33.71 5.36Q33.71 5.24 33.77 4.87L33.77 4.87Q33.84 4.38 33.84 4.26L33.84 4.26Q33.61 4.02 33.19 3.84Q32.77 3.65 32.35 3.65L32.35 3.65Q32.13 4.09 32.13 5.00L32.13 5.00Q32.13 5.91 32.35 6.36L32.35 6.36Q32.54 6.73 32.87 7.02Q33.19 7.31 33.77 7.70L33.77 7.70Q34.40 8.13 34.79 8.48Q35.18 8.82 35.46 9.31L35.46 9.31Q35.81 9.91 36.04 10.37L36.04 10.37Q36.26 10.81 36.37 11.33Q36.48 11.84 36.48 12.33L36.48 12.33Q36.48 13.17 36.35 13.76Q36.22 14.34 35.92 14.99L35.92 14.99Q35.59 15.72 35.03 16.14Q34.47 16.55 33.56 16.77L33.56 16.77L32.35 16.77Q31.98 16.77 31.45 16.37Q30.93 15.96 30.58 15.58L30.58 15.58Q30.14 14.77 30.14 13.87L30.14 13.87Q30.14 13.44 30.27 12.91L30.27 12.91Q30.11 12.91 29.96 13.06L29.96 13.06Q29.83 13.22 29.68 13.22L29.68 13.22Q29.47 13.01 29.42 12.80Q29.37 12.60 29.37 12.32L29.37 12.32Q29.85 12.15 30.48 12.05L30.48 12.05Q30.79 12.00 31.12 11.91Q31.46 11.83 31.77 11.70L31.77 11.70Q32.09 11.70 32.28 11.91Q32.48 12.12 32.48 12.43L32.48 12.43Q32.48 12.67 32.35 12.91L32.35 12.91Q32.06 12.91 31.86 12.96Q31.67 13.01 31.46 13.22L31.46 13.22Q31.15 13.52 31.15 14.17L31.15 14.17Q31.15 14.73 31.40 15.24Q31.64 15.75 32.05 15.89L32.05 15.89Q32.23 15.89 32.35 15.74L32.35 15.74Q32.37 15.72 32.45 15.65Q32.54 15.58 32.66 15.58L32.66 15.58Q33.64 15.09 34.15 14.05Q34.66 13.01 34.66 11.68L34.66 11.68Q34.66 10.81 34.45 9.93L34.45 9.93Q34.22 9.48 33.96 9.22Q33.70 8.96 33.25 8.72L33.25 8.72Q32.84 8.53 32.59 8.32Q32.34 8.12 32.05 7.83L32.05 7.83Q31.91 7.69 31.67 7.55L31.67 7.55Q31.30 7.34 31.05 7.07L31.05 7.07Q30.97 6.97 30.65 6.65Q30.32 6.33 30.14 6.03Q29.96 5.73 29.96 5.46L29.96 5.46Q29.89 5.25 29.89 4.97L29.89 4.97Q29.89 4.03 30.86 3.07L30.86 3.07Q30.97 3.07 31.09 3.02Q31.22 2.97 31.26 2.95L31.26 2.95Q31.65 2.76 32.05 2.76L32.05 2.76Q32.31 2.76 32.49 2.79Q32.68 2.83 32.94 2.91L32.94 2.91L33.56 3.07Q33.59 3.09 33.67 3.16Q33.75 3.23 33.88 3.30Q34.01 3.37 34.15 3.37L34.15 3.37ZM44.02 15.46Q43.88 15.71 43.65 15.95Q43.43 16.18 43.23 16.31L43.23 16.31Q42.42 16.83 41.51 16.83L41.51 16.83Q40.60 16.83 39.82 16.34Q39.05 15.86 38.67 15.16L38.67 15.16Q38.15 14.18 37.80 13.15L37.80 13.15Q37.62 12.40 37.57 11.64Q37.52 10.88 37.52 9.73L37.52 9.73Q37.52 9.55 37.49 9.21L37.49 9.21Q37.46 8.85 37.46 8.67L37.46 8.67Q37.46 8.34 37.52 8.01L37.52 8.01Q37.53 7.92 37.60 7.55Q37.67 7.17 37.67 6.92L37.67 6.92Q37.70 6.78 37.77 6.38L37.77 6.38Q37.83 6.01 37.89 5.78Q37.95 5.56 38.09 5.43L38.09 5.43Q38.25 5.22 38.56 4.75L38.56 4.75Q38.98 4.10 39.28 3.74Q39.58 3.37 40.03 3.11Q40.49 2.84 41.10 2.84L41.10 2.84Q41.38 2.84 41.54 2.87L41.54 2.87Q42.38 2.87 42.88 3.12Q43.37 3.37 43.81 4.02L43.81 4.02Q44.46 4.45 44.92 5.36Q45.37 6.27 45.47 7.36L45.47 7.36Q45.53 7.94 45.53 8.88L45.53 8.88L45.53 9.49Q45.53 10.92 45.29 11.91L45.29 11.91Q44.87 13.90 44.02 15.46L44.02 15.46ZM42.77 15.26Q42.95 14.80 43.18 14.08Q43.41 13.37 43.53 12.88L43.53 12.88Q43.71 12.31 43.76 11.73Q43.81 11.16 43.81 10.30L43.81 10.30Q43.81 10.01 43.86 9.56L43.86 9.56Q43.86 9.48 43.88 9.26Q43.90 9.04 43.90 8.85L43.90 8.85Q43.90 8.65 43.89 8.39Q43.88 8.13 43.86 7.99L43.86 7.99Q43.81 7.43 43.81 7.15L43.81 7.15Q43.67 6.87 43.53 6.31L43.53 6.31Q43.39 5.73 43.23 5.43L43.23 5.43L43.08 5.10Q42.83 4.55 42.63 4.24Q42.43 3.93 42.13 3.78L42.13 3.78Q41.85 3.78 41.57 3.75L41.57 3.75Q41.26 3.72 40.96 3.72L40.96 3.72Q40.54 4.14 40.29 4.60Q40.04 5.05 39.82 5.71L39.82 5.71Q39.62 6.09 39.57 6.48Q39.52 6.86 39.52 7.43L39.52 7.43Q39.41 8.33 39.41 9.42L39.41 9.42Q39.41 11.40 39.82 13.72L39.82 13.72Q39.91 13.92 39.98 14.14Q40.04 14.36 40.07 14.43L40.07 14.43Q40.15 14.73 40.22 14.89Q40.28 15.05 40.39 15.16L40.39 15.16Q40.50 15.16 40.54 15.20Q40.57 15.25 40.60 15.39Q40.63 15.53 40.71 15.61L40.71 15.61Q40.94 15.83 41.44 15.83L41.44 15.83Q41.87 15.83 42.27 15.67Q42.67 15.51 42.77 15.26L42.77 15.26ZM50.65 7.71Q50.65 7.85 50.74 7.92Q50.82 7.98 51.07 8.09L51.07 8.09Q51.24 8.15 51.51 8.29L51.51 8.29Q51.98 8.76 52.31 9.59Q52.64 10.42 52.64 11.42L52.64 11.42Q52.70 11.77 52.70 12.24L52.70 12.24Q52.70 13.58 52.13 14.80Q51.56 16.02 50.65 16.58L50.65 16.58Q50.26 16.77 49.85 16.81Q49.43 16.86 48.65 16.86L48.65 16.86Q48.36 16.86 47.80 16.72L47.80 16.72Q47.21 16.58 46.93 16.58L46.93 16.58Q46.58 16.58 46.42 16.55Q46.26 16.52 46.17 16.40Q46.07 16.28 46.07 16.00L46.07 16.00L46.07 15.71L46.93 15.71Q47.01 15.36 47.07 14.59L47.07 14.59Q47.08 14.20 47.08 13.38L47.08 13.38Q47.08 12.56 47.10 11.99Q47.12 11.42 47.22 10.85L47.22 10.85L47.22 10.29L47.22 8.86L47.22 5.99L47.22 3.71Q46.65 3.71 46.36 3.61Q46.07 3.51 46.07 3.14L46.07 3.14Q46.26 2.95 46.59 2.91Q46.93 2.86 47.50 2.86L47.50 2.86Q48.93 2.86 49.74 2.95Q50.55 3.05 50.93 3.43L50.93 3.43Q50.99 3.54 51.04 3.63Q51.09 3.71 51.11 3.78L51.11 3.78Q51.32 4.14 51.42 4.42Q51.51 4.70 51.51 5.14L51.51 5.14Q51.58 5.33 51.58 5.63L51.58 5.63Q51.58 6.16 51.30 6.74Q51.03 7.32 50.65 7.71L50.65 7.71ZM48.93 3.71Q48.73 3.91 48.69 4.13Q48.65 4.35 48.65 4.86L48.65 4.86Q48.65 5.64 48.69 6.06Q48.73 6.47 48.93 6.86L48.93 6.86Q49.00 6.93 49.08 6.93L49.08 6.93Q49.20 6.93 49.31 6.83Q49.42 6.72 49.57 6.52L49.57 6.52L49.78 6.29Q49.98 5.73 50.09 5.31Q50.19 4.90 50.19 4.56L50.19 4.56Q50.19 4.23 50.08 4.00L50.08 4.00Q49.88 3.81 49.58 3.76Q49.28 3.71 48.93 3.71L48.93 3.71ZM50.08 15.43L50.65 14.85Q50.83 14.67 50.88 14.37Q50.93 14.07 50.93 13.72L50.93 13.72Q51.14 13.50 51.18 13.43Q51.21 13.36 51.21 13.15L51.21 13.15Q51.34 12.89 51.34 12.42L51.34 12.42Q51.34 12.22 51.27 11.49L51.27 11.49Q51.21 10.99 51.21 10.85L51.21 10.85L51.23 10.37Q51.23 10.21 51.18 10.05Q51.14 9.90 51.02 9.65L51.02 9.65Q51.02 9.65 51.02 9.63Q51.03 9.60 51.03 9.58L51.03 9.58L51.00 9.37Q50.99 9.32 50.93 9.18Q50.86 9.04 50.78 8.85L50.78 8.85Q50.36 8.43 49.87 8.21Q49.38 7.99 48.93 7.99L48.93 7.99Q48.75 8.19 48.70 8.49Q48.65 8.79 48.65 9.14L48.65 9.14L48.65 13.72L48.65 15.71Q49.21 15.71 49.55 15.66Q49.88 15.61 50.08 15.43L50.08 15.43Z"></path></g><!----><g data-v-423bf9ae="" id="86210eb2-e69c-48b6-b911-3cdcc7d74570" transform="matrix(3.6,0,0,3.6,0.2604753000861777,0)" stroke="none" fill="white"><path d="M2.702 3h20c.551 0 1-.449 1-1V1c0-.551-.449-1-1-1h-20c-.551 0-1 .449-1 1v1c0 .551.449 1 1 1zM25.406 10.97l-1.704-4.881V5c0-.551-.449-1-1-1h-20c-.551 0-1 .449-1 1v1.089L0 10.97s-.017 1.024 1.015 1.024a.75.75 0 00.687-.383V24c0 .551.449 1 1 1h13V15h5v10h2c.551 0 1-.449 1-1V11.61c.135.206.37.384.798.384 1.032 0 .906-1.024.906-1.024zm-15.991.094a1.415 1.415 0 01-2.828.041c.001-.036.002-.07.001-.092A.059.059 0 006.59 11h-.002l-.002-.03L7.253 7h2.515l-.359 3.97.002.03h-.003c.001.021.007.042.007.064zm-6.12 1.416a1.417 1.417 0 01-1.416-1.416c0-.022.006-.043.007-.064h-.005l.001-.03L3.061 7h2.515l-.872 3.97.002.03h-.002c.001.021.007.042.007.064 0 .781-.634 1.416-1.416 1.416zM12.702 22h-8v-7h8v7zm.001-9.52a1.417 1.417 0 01-1.416-1.416c0-.022.006-.043.007-.064h-.003v-.03L11.444 7h2.515l.153 3.97V11h-.001l.001.013c0 .014.003.039.005.059a1.415 1.415 0 01-1.414 1.408zm4.703 0a1.416 1.416 0 01-1.415-1.405l.004-.054a.15.15 0 00.002-.021h-.002v-.03L15.636 7h2.516l.667 3.97.003.03h-.007c.001.021.007.042.007.064 0 .781-.634 1.416-1.416 1.416zm4.687 0a1.413 1.413 0 01-1.41-1.358c.015-.091.017-.152.017-.152L19.828 7h2.516l1.181 3.97V11h-.022c.001.021.007.042.007.064a1.418 1.418 0 01-1.417 1.416z"></path></g><!----></svg>